<svg width="107" height="76" viewBox="0 0 107 76" fill="none" xmlns="http://www.w3.org/2000/svg">
<path d="M54.4255 37.8326C37.2441 52.9715 21.2962 69.5762 19.9826 78.1308C18.1403 89.9776 25.3973 93.3498 28.6654 93.4139C37.5645 93.6061 54.1451 57.7134 59.9043 44.0083C65.5113 30.6957 58.1982 34.5085 54.4255 37.8326Z" fill="#A3DE42"/>
<path d="M52.8556 53.3317C52.4817 53.3317 52.1232 53.1832 51.8588 52.9188C51.5944 52.6544 51.4459 52.2959 51.4459 51.922C51.4438 51.4595 51.2591 51.0166 50.9321 50.6896C50.6051 50.3625 50.1622 50.1779 49.6997 50.1758H48.6023V50.5122H49.6997C50.0722 50.5143 50.4287 50.6638 50.6914 50.9279C50.954 51.1921 51.1014 51.5495 51.1014 51.922C51.1014 52.3872 51.2863 52.8334 51.6152 53.1624C51.9442 53.4913 52.3904 53.6762 52.8556 53.6762H53.8889V53.3317H52.8556ZM39.7032 80.83C39.3293 80.83 38.9708 80.6815 38.7064 80.4171C38.442 80.1527 38.2935 79.7941 38.2935 79.4202C38.2914 78.9564 38.1056 78.5122 37.7769 78.185C37.4481 77.8578 37.0032 77.674 36.5393 77.674H35.4499V78.0185H36.5393C36.7241 78.0174 36.9072 78.0529 37.0782 78.1229C37.2492 78.1928 37.4046 78.2959 37.5357 78.4262C37.6667 78.5565 37.7706 78.7114 37.8416 78.8819C37.9125 79.0525 37.9491 79.2355 37.9491 79.4202C37.9491 79.8855 38.1339 80.3316 38.4628 80.6606C38.7918 80.9896 39.238 81.1744 39.7032 81.1744H40.7365V80.83H39.7032ZM26.5509 74.3018C26.4198 74.1709 26.3159 74.0155 26.245 73.8443C26.1741 73.6732 26.1375 73.4898 26.1375 73.3046C26.1375 73.1194 26.1741 72.936 26.245 72.7649C26.3159 72.5937 26.4198 72.4383 26.5509 72.3074C26.7138 72.1451 26.8432 71.9523 26.9314 71.7399C27.0197 71.5275 27.0651 71.2998 27.0651 71.0698C27.0651 70.8398 27.0197 70.6121 26.9314 70.3997C26.8432 70.1874 26.7138 69.9945 26.5509 69.8323L25.7499 69.0313L25.5096 69.2796L26.3106 70.0806C26.5732 70.346 26.7206 70.7044 26.7206 71.0778C26.7206 71.4513 26.5732 71.8096 26.3106 72.0751C26.1466 72.2368 26.0164 72.4294 25.9275 72.6419C25.8387 72.8543 25.7929 73.0823 25.7929 73.3126C25.7929 73.5429 25.8387 73.7709 25.9275 73.9833C26.0164 74.1958 26.1466 74.3885 26.3106 74.5502L27.0395 75.2791L27.2798 75.0388L26.5509 74.3018ZM30.8042 87.6945L30.0032 88.4955C29.8722 88.6266 29.7168 88.7305 29.5457 88.8014C29.3745 88.8723 29.1911 88.9088 29.0059 88.9088C28.8207 88.9088 28.6373 88.8723 28.4662 88.8014C28.295 88.7305 28.1396 88.6266 28.0087 88.4955C27.6799 88.1683 27.235 87.9846 26.7711 87.9846C26.3073 87.9846 25.8623 88.1683 25.5336 88.4955L24.8047 89.2244L25.045 89.4647L25.7739 88.7358C26.0393 88.4731 26.3977 88.3258 26.7711 88.3258C27.1446 88.3258 27.5029 88.4731 27.7684 88.7358C27.9306 88.8988 28.1235 89.0281 28.3358 89.1164C28.5482 89.2047 28.7759 89.2501 29.0059 89.2501C29.2359 89.2501 29.4636 89.2047 29.676 89.1164C29.8884 89.0281 30.0812 88.8988 30.2434 88.7358L31.0444 87.9348L30.8042 87.6945ZM41.5616 62.5912L40.7606 63.3922C40.6296 63.5233 40.4742 63.6272 40.3031 63.6981C40.132 63.7691 39.9485 63.8056 39.7633 63.8056C39.5781 63.8056 39.3947 63.7691 39.2236 63.6981C39.0525 63.6272 38.897 63.5233 38.7661 63.3922C38.4373 63.065 37.9924 62.8813 37.5285 62.8813C37.0647 62.8813 36.6197 63.065 36.291 63.3922L35.5621 64.1212L35.8024 64.3695L36.5313 63.6325C36.7967 63.3699 37.1551 63.2225 37.5285 63.2225C37.902 63.2225 38.2603 63.3699 38.5258 63.6325C38.688 63.7955 38.8809 63.9249 39.0932 64.0131C39.3056 64.1014 39.5333 64.1468 39.7633 64.1468C39.9933 64.1468 40.221 64.1014 40.4334 64.0131C40.6458 63.9249 40.8386 63.7955 41.0009 63.6325L41.8019 62.8316L41.5616 62.5912Z" fill="white"/>
<path opacity="0.1" d="M59.8963 43.9833C54.1211 57.6884 37.5404 93.5811 28.6574 93.3889C27.9956 93.3656 27.3405 93.2497 26.7109 93.0444L61.242 34.916C62.3313 35.685 62.3233 38.2402 59.8963 43.9833Z" fill="black"/>
<path d="M95.7951 91.9319C95.683 92.0681 46.4617 91.2511 45.9891 90.7785C45.8128 90.5943 50.6188 47.1722 57.2992 36.3907C60.0466 31.9452 67.7121 29.6623 72.9347 36.2946C89.0748 56.7361 95.9313 91.7637 95.7951 91.9319Z" fill="#A3DE42"/>
<path d="M67.8188 75.7444C67.4449 75.7444 67.0864 75.5959 66.822 75.3315C66.5576 75.0671 66.4091 74.7085 66.4091 74.3347C66.4091 73.8694 66.2243 73.4232 65.8953 73.0943C65.5663 72.7653 65.1201 72.5805 64.6549 72.5805H63.5655V72.9249H64.6549C65.0288 72.9249 65.3874 73.0734 65.6517 73.3378C65.9161 73.6022 66.0646 73.9608 66.0646 74.3347C66.0668 74.7985 66.2525 75.2426 66.5812 75.5699C66.91 75.8971 67.355 76.0808 67.8188 76.0808H68.8521V75.7444H67.8188ZM52.8562 53.3165C52.6711 53.3173 52.4878 53.2808 52.3172 53.2093C52.1465 53.1377 51.9921 53.0325 51.863 52.9C51.863 53.0281 51.8069 53.1563 51.7748 53.2844C52.0805 53.5319 52.4629 53.665 52.8562 53.6609H53.8895V53.3165H52.8562ZM55.0589 85.3564C54.9272 85.2267 54.8225 85.0721 54.7511 84.9016C54.6797 84.731 54.6429 84.548 54.6429 84.3631C54.6429 84.1783 54.6797 83.9953 54.7511 83.8247C54.8225 83.6542 54.9272 83.4996 55.0589 83.3699C55.3863 83.0395 55.5704 82.5935 55.5716 82.1284C55.5717 81.8991 55.5265 81.6721 55.4385 81.4604C55.3505 81.2487 55.2215 81.0565 55.0589 80.8948L54.2579 80.0938L54.0176 80.3341L54.8186 81.1351C54.9504 81.2648 55.055 81.4194 55.1264 81.5899C55.1978 81.7605 55.2346 81.9435 55.2346 82.1284C55.2346 82.3132 55.1978 82.4963 55.1264 82.6668C55.055 82.8373 54.9504 82.9919 54.8186 83.1216C54.4909 83.4517 54.307 83.898 54.307 84.3631C54.307 84.8283 54.4909 85.2746 54.8186 85.6047L55.5555 86.3336L55.7959 86.0933L55.0589 85.3564ZM65.2476 60.3733C64.9854 60.1092 64.8383 59.7521 64.8383 59.38C64.8383 59.0079 64.9854 58.6509 65.2476 58.3868C65.5749 58.058 65.7586 57.6131 65.7586 57.1492C65.7586 56.6854 65.5749 56.2404 65.2476 55.9117L64.4466 55.1107L64.2063 55.359L65.0073 56.16C65.1384 56.2909 65.2423 56.4464 65.3132 56.6175C65.3841 56.7886 65.4206 56.972 65.4206 57.1573C65.4206 57.3425 65.3841 57.5259 65.3132 57.697C65.2423 57.8681 65.1384 58.0236 65.0073 58.1545C64.6801 58.4832 64.4964 58.9282 64.4964 59.392C64.4964 59.8559 64.6801 60.3008 65.0073 60.6296L65.7362 61.3585L65.9846 61.1182L65.2476 60.3733ZM91.6806 82.9374C91.5495 82.8064 91.4456 82.651 91.3747 82.4799C91.3038 82.3088 91.2673 82.1254 91.2673 81.9401C91.2673 81.7549 91.3038 81.5715 91.3747 81.4004C91.4456 81.2293 91.5495 81.0738 91.6806 80.9429C92.0078 80.6141 92.1915 80.1692 92.1915 79.7053C92.1915 79.2415 92.0078 78.7965 91.6806 78.4678L90.8796 77.6668L90.6393 77.9071L91.4403 78.7081C91.5713 78.839 91.6752 78.9945 91.7461 79.1656C91.8171 79.3367 91.8536 79.5201 91.8536 79.7053C91.8536 79.8906 91.8171 80.074 91.7461 80.2451C91.6752 80.4162 91.5713 80.5717 91.4403 80.7026C91.113 81.0313 90.9293 81.4763 90.9293 81.9401C90.9293 82.404 91.113 82.8489 91.4403 83.1777L92.1772 83.9066L92.4175 83.6663L91.6806 82.9374ZM67.0659 90.9474L66.5452 91.468H67.0258L67.3062 91.1876L67.0659 90.9474ZM62.332 91.3719H63.8699C63.6226 91.2548 63.3517 91.196 63.0781 91.2002C62.8045 91.2043 62.5356 91.2713 62.2919 91.3959L62.332 91.3719ZM84.2633 55.4792L83.6946 56.0479L83.9349 56.2882L84.4075 55.8156L84.2633 55.4792ZM77.7752 81.6317V82.665C77.7752 83.0389 77.6267 83.3975 77.3623 83.6619C77.0979 83.9263 76.7394 84.0748 76.3655 84.0748C75.9016 84.0748 75.4566 84.2585 75.1279 84.5857C74.7992 84.913 74.6134 85.3571 74.6113 85.821V86.9183H74.9557V85.7969C74.9557 85.6122 74.9922 85.4292 75.0632 85.2587C75.1341 85.0881 75.2381 84.9332 75.3691 84.8029C75.5001 84.6726 75.6556 84.5695 75.8266 84.4996C75.9976 84.4296 76.1807 84.3941 76.3655 84.3952C76.8293 84.3931 77.2734 84.2073 77.6007 83.8786C77.9279 83.5498 78.1117 83.1049 78.1117 82.641V81.6317H77.7752ZM52.6559 65.756V66.7893C52.6559 67.1631 52.5074 67.5217 52.243 67.7861C51.9786 68.0505 51.6201 68.199 51.2462 68.199C50.7823 68.2011 50.3382 68.3869 50.011 68.7156C49.6837 69.0444 49.5 69.4893 49.5 69.9532V71.0425H49.8364V69.9532C49.8364 69.5793 49.9849 69.2207 50.2493 68.9563C50.5137 68.692 50.8723 68.5434 51.2462 68.5434C51.7114 68.5434 52.1576 68.3586 52.4866 68.0297C52.8156 67.7007 53.0004 67.2545 53.0004 66.7893V65.756H52.6559ZM64.9753 37.2404V38.2737C64.9753 38.6476 64.8268 39.0062 64.5624 39.2706C64.298 39.535 63.9394 39.6835 63.5655 39.6835C63.1031 39.6856 62.6601 39.8702 62.3331 40.1972C62.0061 40.5243 61.8215 40.9672 61.8194 41.4297V42.527H62.1558V41.4297C62.1504 41.2412 62.1829 41.0535 62.2514 40.8779C62.3198 40.7022 62.4228 40.542 62.5543 40.4068C62.6857 40.2716 62.8429 40.1642 63.0166 40.0909C63.1903 40.0175 63.377 39.9798 63.5655 39.9799C64.0301 39.9777 64.4751 39.7922 64.8036 39.4637C65.1321 39.1352 65.3176 38.6903 65.3197 38.2257V37.1924L64.9753 37.2404ZM80.4666 64.6986V65.7319C80.4666 66.1058 80.3181 66.4644 80.0537 66.7288C79.7893 66.9932 79.4307 67.1417 79.0568 67.1417C78.5916 67.1417 78.1454 67.3265 77.8164 67.6555C77.4875 67.9845 77.3026 68.4306 77.3026 68.8959V69.9852H77.6471V68.8959C77.6471 68.522 77.7956 68.1634 78.06 67.899C78.3244 67.6347 78.6829 67.4861 79.0568 67.4861C79.5207 67.484 79.9648 67.2983 80.2921 66.9695C80.6193 66.6408 80.803 66.1958 80.803 65.7319V64.6986H80.4666ZM76.6939 51.0256C76.32 51.0256 75.9614 50.8771 75.697 50.6127C75.4327 50.3483 75.2841 49.9897 75.2841 49.6159C75.2841 49.1506 75.0993 48.7044 74.7703 48.3755C74.4414 48.0465 73.9952 47.8617 73.5299 47.8617H72.4566V48.2061H73.546C73.9198 48.2061 74.2784 48.3546 74.5428 48.619C74.8072 48.8834 74.9557 49.242 74.9557 49.6159C74.9578 50.0804 75.1433 50.5254 75.4718 50.8539C75.8004 51.1824 76.2453 51.3679 76.7099 51.37H77.7432V51.0256H76.6939Z" fill="white"/>
<path d="M74.5198 36.3583C90.5397 48.918 106.215 70.625 106.335 82.7601C106.448 94.7751 102.274 93.5816 101.089 93.5015C93.8799 93.0289 76.8026 59.6834 71.6121 46.0905C66.4217 32.4975 70.5628 33.2505 74.5198 36.3583Z" fill="#A3DE42"/>
<path d="M96.1146 70.1842C95.7407 70.1842 95.3821 70.0356 95.1178 69.7713C94.8534 69.5069 94.7049 69.1483 94.7049 68.7744C94.7049 68.3106 94.5211 67.8656 94.1939 67.5368C93.8666 67.2081 93.4225 67.0223 92.9587 67.0202H91.8613V67.3647H92.9587C93.3312 67.3668 93.6877 67.5162 93.9503 67.7804C94.213 68.0445 94.3604 68.4019 94.3604 68.7744C94.3625 69.2383 94.5483 69.6824 94.877 70.0096C95.2058 70.3369 95.6508 70.5206 96.1146 70.5206H97.1479V70.1842H96.1146ZM91.6771 82.9361C91.5461 82.8051 91.4421 82.6497 91.3712 82.4786C91.3003 82.3074 91.2638 82.124 91.2638 81.9388C91.2638 81.7536 91.3003 81.5702 91.3712 81.3991C91.4421 81.2279 91.5461 81.0725 91.6771 80.9416C92.0043 80.6128 92.188 80.1679 92.188 79.704C92.188 79.2402 92.0043 78.7952 91.6771 78.4665L90.8761 77.6655L90.6358 77.9058L91.4368 78.7068C91.5678 78.8377 91.6717 78.9932 91.7427 79.1643C91.8136 79.3354 91.8501 79.5188 91.8501 79.704C91.8501 79.8893 91.8136 80.0727 91.7427 80.2438C91.6717 80.4149 91.5678 80.5703 91.4368 80.7013C91.1096 81.03 90.9258 81.475 90.9258 81.9388C90.9258 82.4026 91.1096 82.8476 91.4368 83.1763L92.1737 83.9053L92.414 83.665L91.6771 82.9361ZM89.6586 54.5727L88.8576 55.3737C88.5921 55.6364 88.2338 55.7837 87.8603 55.7837C87.4869 55.7837 87.1285 55.6364 86.8631 55.3737C86.5343 55.0465 86.0894 54.8628 85.6255 54.8628C85.1617 54.8628 84.7167 55.0465 84.388 55.3737L83.6591 56.1026L83.8994 56.3429L84.6283 55.614C84.8937 55.3513 85.2521 55.204 85.6255 55.204C85.999 55.204 86.3573 55.3513 86.6228 55.614C86.9515 55.9412 87.3965 56.125 87.8603 56.125C88.3242 56.125 88.7691 55.9412 89.0979 55.614L89.8989 54.813L89.6586 54.5727ZM105.142 76.1997C104.704 76.2359 104.296 76.4358 103.999 76.7594C103.702 77.083 103.538 77.5066 103.54 77.9458V79.0352H103.884V77.9458C103.884 77.5795 104.027 77.2278 104.283 76.9658C104.539 76.7038 104.888 76.5525 105.254 76.5441C105.182 76.4079 105.142 76.2958 105.102 76.1756L105.142 76.1997ZM80.4631 64.6973V65.3381L80.7835 65.9549C80.7875 65.8802 80.7875 65.8053 80.7835 65.7306V64.6973H80.4631ZM103.604 87.4377V88.4709C103.604 88.8448 103.455 89.2034 103.191 89.4678C102.927 89.7322 102.568 89.8807 102.194 89.8807C101.73 89.8807 101.285 90.0644 100.957 90.3917C100.628 90.7189 100.442 91.163 100.44 91.6269V92.7162H100.784V91.6269C100.784 91.253 100.933 90.8944 101.197 90.63C101.462 90.3657 101.82 90.2171 102.194 90.2171C102.657 90.215 103.1 90.0304 103.427 89.7034C103.754 89.3763 103.938 88.9334 103.94 88.4709V87.4377H103.604ZM76.6904 51.0243C76.3165 51.0243 75.9579 50.8758 75.6936 50.6114C75.4292 50.347 75.2806 49.9884 75.2806 49.6145C75.2806 49.1493 75.0958 48.7031 74.7668 48.3741C74.4379 48.0452 73.9917 47.8604 73.5265 47.8604H72.4531V48.2048H73.5425C73.9164 48.2048 74.275 48.3533 74.5393 48.6177C74.8037 48.8821 74.9522 49.2406 74.9522 49.6145C74.9543 50.0791 75.1398 50.5241 75.4684 50.8526C75.7969 51.1811 76.2418 51.3666 76.7064 51.3687H77.7397V51.0243H76.6904Z" fill="white"/>
<path d="M91.4673 84.1466C90.6263 82.6327 89.7692 81.1429 88.9522 79.621L86.4611 75.0873C84.811 72.0516 83.1449 69.0398 81.5429 65.98C79.9409 62.9202 78.339 59.9004 76.737 56.8326C75.9413 55.3053 75.167 53.7674 74.4141 52.2188C73.6131 50.6809 72.9242 49.111 72.1953 47.541C73.352 50.8164 74.6891 54.0253 76.2003 57.153C77.6661 60.2849 79.2601 63.3527 80.8621 66.4125C82.4641 69.4723 84.1862 72.4681 85.9565 75.4318C87.7267 78.3954 89.4808 81.3111 91.4673 84.1466Z" fill="#263238"/>
<path d="M73.8802 51.5618C73.5853 51.0062 73.2534 50.471 72.887 49.9598C72.7108 49.7195 72.5426 49.4631 72.3503 49.2228C72.1581 48.9825 71.9819 48.7342 71.7656 48.502C71.9123 49.1173 72.1851 49.6955 72.5666 50.2001C72.9161 50.7317 73.3616 51.1935 73.8802 51.5618Z" fill="#263238"/>
<path d="M24.9844 60.5885C25.7854 54.9815 27.4995 47.1237 29.534 45.4977C31.5686 43.8716 39.4023 38.1045 41.6291 37.3595C43.8559 36.6146 53.7722 32.9701 55.5745 34.0354C57.0163 34.8925 55.2541 38.6972 50.5362 40.4434C47.9738 41.4726 45.4755 42.6549 43.0549 43.9838C41.8454 44.4884 38.8977 48.3572 39.6747 50.0954C40.1312 51.1207 43.0789 52.3462 44.9292 51.5372C46.7795 50.7282 47.2681 47.0836 49.3908 45.3855C51.5134 43.6874 55.2301 43.9357 55.4303 44.945C55.6306 45.9542 54.405 46.4028 52.4666 49.751C51.2171 51.9217 51.0809 57.1762 48.2694 60.9169C46.8351 63.1331 45.5351 65.4334 44.3765 67.8055L24.9844 60.5885Z" fill="#AD6359"/>
<path d="M51.3638 43.8878C52.0434 43.7993 52.6845 43.5217 53.2141 43.0868C53.423 42.8835 53.5702 42.6252 53.6386 42.3419C53.6667 42.1856 53.6667 42.0255 53.6386 41.8693C53.6351 41.7035 53.5726 41.5445 53.4624 41.4207C53.4624 41.4207 53.4624 41.3486 53.5024 41.4207C53.5425 41.4928 53.6226 41.5649 53.6706 41.645C53.7117 41.7139 53.7465 41.7862 53.7748 41.8613C53.8309 42.0066 53.8555 42.1622 53.8469 42.3178C53.8331 42.6619 53.7 42.9904 53.4704 43.247C53.1983 43.5269 52.865 43.7398 52.4967 43.8691C52.1284 43.9984 51.7351 44.0404 51.3477 43.9919C51.3477 43.9919 51.3317 43.8958 51.3638 43.8878Z" fill="#263238"/>
<path d="M29.5391 45.4975C31.3573 42.71 35.9951 37.6878 40.5528 35.9897C43.6286 34.8522 54.1698 40.0988 53.8013 42.1173C53.4328 44.1358 51.6706 44.1198 48.9953 43.7754C48.0261 43.6472 42.8997 41.7408 42.0106 42.8141C40.737 44.3521 39.079 49.6387 39.079 49.6387L29.5391 45.4975Z" fill="#AD6359"/>
<path d="M53.5399 41.3256C52.2583 39.1549 49.3987 37.9694 46.5552 37.0322C46.5151 37.0322 46.4911 37.0803 46.5552 37.0963C47.2841 37.3366 51.9058 39.4993 53.5319 41.3576C53.5239 41.3816 53.5479 41.3496 53.5399 41.3256Z" fill="#263238"/>
<path d="M29.5391 45.4979C31.3573 42.7104 35.9951 37.6881 40.5528 35.99C43.6286 34.8526 51.911 41.5169 51.5825 43.5274C51.2541 45.5379 48.6589 45.6821 45.8073 44.6488C44.8862 44.3204 41.8023 42.1016 40.9212 43.175C39.6396 44.7129 36.5318 48.5336 36.5318 48.5336L29.5391 45.4979Z" fill="#AD6359"/>
<path d="M38.305 46.1636L38.9938 45.1303C39.2982 44.6978 39.6026 44.2732 39.931 43.8567C40.1921 43.4753 40.5173 43.142 40.8922 42.8715C41.2771 42.657 41.721 42.5727 42.1578 42.6312C43.1424 42.85 44.0702 43.2729 44.8812 43.8727C45.8103 44.4174 47.7567 45.3145 49.2466 45.1704C49.6584 45.1509 50.0619 45.0473 50.4321 44.866C50.7126 44.7411 50.9575 44.5484 51.145 44.3053C51.8018 43.2159 51.0088 41.9503 50.1918 41.0532C48.5696 39.4299 46.6709 38.1089 44.5848 37.1524C44.0962 36.9041 43.5916 36.6718 43.0949 36.4395C42.5409 36.1303 41.9256 35.9471 41.2927 35.9028C40.2514 35.9028 38.5373 36.9201 38.0086 37.2325C38.0086 37.2325 37.9365 37.2325 38.0086 37.1684C38.6494 36.7759 40.2514 35.4943 41.9255 35.5664C42.5334 35.6663 43.1191 35.8724 43.6556 36.1752C44.2404 36.4315 44.8171 36.7038 45.3778 36.9762C46.4974 37.5267 47.5691 38.1697 48.5818 38.8985C49.59 39.5628 50.4671 40.4073 51.169 41.3896C51.4627 41.8271 51.632 42.3362 51.6588 42.8624C51.6856 43.3887 51.5689 43.9123 51.3212 44.3774C51.0951 44.6694 50.8082 44.9088 50.4804 45.0789C50.1526 45.249 49.7918 45.3458 49.4228 45.3626C48.987 45.4227 48.545 45.4227 48.1092 45.3626C47.1337 45.1404 46.1754 44.8486 45.2416 44.4895C44.3365 44.1211 43.5275 43.4963 42.5983 43.2079C42.3781 43.128 42.1441 43.0932 41.9101 43.1055C41.6762 43.1179 41.4472 43.1773 41.2366 43.28C40.8558 43.5344 40.5132 43.8418 40.2194 44.1931C39.589 44.802 39.0152 45.4669 38.5052 46.1796C38.321 46.3879 38.1848 46.3879 38.305 46.1636Z" fill="#263238"/>
<path d="M28.1641 47.9404C28.8289 46.6107 29.9984 41.1078 31.0797 39.4258C32.1611 37.7437 37.0792 31.9524 39.346 32.2168C42.1976 32.5692 39.1698 37.6796 37.6559 39.7782C36.142 41.8768 36.3583 45.4733 36.3583 45.4733L28.1641 47.9404Z" fill="#AD6359"/>
<path d="M39.791 36.2947C39.2544 36.9595 38.7818 37.6965 38.3092 38.4174C37.8282 39.0802 37.3946 39.7761 37.0116 40.5C36.6923 41.2427 36.4975 42.0329 36.4348 42.8389C36.3948 43.2394 36.3788 43.6399 36.3707 44.0324C36.3627 44.4248 36.3707 44.9054 36.3707 45.338C36.3707 45.386 36.4428 45.3941 36.4428 45.338C36.5033 44.5438 36.6157 43.7545 36.7793 42.975C36.9322 42.1666 37.1795 41.3789 37.5162 40.6281C38.197 39.1463 39.1903 37.8246 39.9192 36.3428C39.9192 36.2947 39.8311 36.2547 39.791 36.2947Z" fill="#263238"/>
<path d="M36.4252 46.0908C36.3139 47.4625 36.5508 48.8401 37.1141 50.0958C37.6158 51.3764 38.31 52.573 39.1726 53.6442C39.9864 54.6736 40.6722 55.7979 41.2152 56.9924C41.7189 58.2242 42.0713 59.5125 42.2645 60.8292C42.3738 59.4608 42.216 58.0843 41.7999 56.7761C41.3524 55.4682 40.6891 54.2445 39.8375 53.1556C39.0248 52.1175 38.3215 50.9981 37.7389 49.8155C37.0985 48.6549 36.6547 47.3963 36.4252 46.0908Z" fill="#263238"/>
<path d="M29.4727 93.0052C35.0316 92.2523 38.6682 82.9607 45.0121 66.6123C46.1255 63.7448 31.6034 46.1068 29.6329 48.7421C27.1418 52.0582 20.4375 70.5132 19.7406 75.5434C18.3469 85.4598 22.9846 93.8783 29.4727 93.0052Z" fill="#AD6359"/>
<path d="M41.6654 75.7367L23.7551 58.3311C23.7551 58.3311 18.6608 73.3097 19.1414 79.5895C19.622 85.8694 21.8007 93.0223 29.3621 93.4148C35.0252 93.7111 41.6654 75.7367 41.6654 75.7367Z" fill="#A3DE42"/>
<path d="M38.2935 79.4436C38.2914 78.9798 38.1056 78.5356 37.7769 78.2084C37.4481 77.8812 37.0032 77.6974 36.5393 77.6974H35.4499V78.0419H36.5393C36.7241 78.0408 36.9072 78.0763 37.0782 78.1463C37.2492 78.2162 37.4046 78.3193 37.5357 78.4496C37.6667 78.5799 37.7706 78.7348 37.8416 78.9054C37.9125 79.0759 37.9491 79.2589 37.9491 79.4436C37.9489 79.8506 38.0903 80.2449 38.349 80.5591C38.6076 80.8732 38.9674 81.0877 39.3668 81.1658C39.4229 81.0536 39.471 80.9415 39.519 80.8294C39.1806 80.7882 38.869 80.6245 38.6432 80.3691C38.4174 80.1138 38.293 79.7845 38.2935 79.4436ZM26.5509 74.3253C26.4198 74.1943 26.3159 74.0389 26.245 73.8678C26.1741 73.6966 26.1375 73.5132 26.1375 73.328C26.1375 73.1428 26.1741 72.9594 26.245 72.7883C26.3159 72.6171 26.4198 72.4617 26.5509 72.3308C26.7138 72.1685 26.8432 71.9757 26.9314 71.7633C27.0197 71.5509 27.0651 71.3232 27.0651 71.0932C27.0651 70.8632 27.0197 70.6355 26.9314 70.4232C26.8432 70.2108 26.7138 70.0179 26.5509 69.8557L25.7499 69.0547L25.5096 69.303L26.3106 70.104C26.5732 70.3694 26.7206 70.7278 26.7206 71.1012C26.7206 71.4747 26.5732 71.833 26.3106 72.0985C26.1466 72.2602 26.0164 72.4529 25.9275 72.6653C25.8387 72.8777 25.7929 73.1057 25.7929 73.336C25.7929 73.5663 25.8387 73.7943 25.9275 74.0067C26.0164 74.2192 26.1466 74.4119 26.3106 74.5736L27.0395 75.3025L27.2798 75.0622L26.5509 74.3253ZM30.8042 87.6939L30.0032 88.4949C29.8722 88.6259 29.7168 88.7299 29.5457 88.8008C29.3745 88.8717 29.1911 88.9082 29.0059 88.9082C28.8207 88.9082 28.6373 88.8717 28.4662 88.8008C28.295 88.7299 28.1396 88.6259 28.0087 88.4949C27.6799 88.1677 27.235 87.984 26.7711 87.984C26.3073 87.984 25.8623 88.1677 25.5336 88.4949L24.8047 89.2238L25.045 89.4641L25.7739 88.7352C26.0393 88.4725 26.3977 88.3252 26.7711 88.3252C27.1446 88.3252 27.5029 88.4725 27.7684 88.7352C27.9306 88.8982 28.1235 89.0275 28.3358 89.1158C28.5482 89.204 28.7759 89.2495 29.0059 89.2495C29.2359 89.2495 29.4636 89.204 29.676 89.1158C29.8884 89.0275 30.0812 88.8982 30.2434 88.7352L31.0444 87.9342L30.8042 87.6939Z" fill="white"/>
<path d="M35.8828 87.7825C36.5316 86.8694 37.1083 85.9082 37.669 84.947C38.2297 83.9858 38.7504 82.9846 39.271 81.9913C39.7917 80.9981 40.2402 79.9728 40.6487 78.9315C41.093 77.8976 41.4415 76.8251 41.69 75.7275C41.2175 76.7448 40.7208 77.73 40.2082 78.7233L38.7103 81.703C38.2217 82.7042 37.7251 83.6975 37.2605 84.7147C36.796 85.732 36.2993 86.7413 35.8828 87.7825Z" fill="#263238"/>
<path d="M37.7986 78.7716C36.9335 77.8184 35.9803 76.9293 35.0592 76.0322C34.138 75.1351 33.2009 74.238 32.2557 73.3569C30.3653 71.5947 28.467 69.8405 26.5446 68.1183L24.9426 66.7086C24.3658 66.212 23.7331 65.7874 23.1643 65.2908C23.1558 65.2834 23.1448 65.2796 23.1335 65.2804C23.1222 65.2811 23.1117 65.2863 23.1043 65.2948C23.0968 65.3033 23.0931 65.3144 23.0938 65.3257C23.0946 65.337 23.0998 65.3475 23.1083 65.3549C23.5649 65.7954 23.9573 66.3081 24.4059 66.7566C24.8545 67.2052 25.3431 67.6778 25.8156 68.1344L28.6352 70.7937C30.5255 72.5559 32.4239 74.31 34.3623 76.0082C35.4677 76.9694 36.541 77.9706 37.6945 78.8677C37.7072 78.8815 37.7249 78.8897 37.7437 78.8905C37.7625 78.8912 37.7808 78.8845 37.7946 78.8717C37.8084 78.859 37.8166 78.8413 37.8173 78.8225C37.8181 78.8037 37.8113 78.7854 37.7986 78.7716Z" fill="#263238"/>
<path d="M60.8703 43.9834C63.7699 44.2718 68.5919 38.8891 70.0337 35.1725C70.1298 34.9162 69.4249 32.4491 68.712 29.4133C68.2875 27.563 67.863 25.4964 67.6067 23.582L55.9922 28.1077C57.0013 30.4133 57.7223 32.8346 58.1389 35.3166C58.1625 35.5831 58.1625 35.8512 58.1389 36.1176C58.1348 36.1603 58.1348 36.2032 58.1389 36.2458C58.1148 37.7196 58.0427 43.6951 60.8703 43.9834Z" fill="#AD6359"/>
<path d="M58.1629 36.0615C58.1589 36.1041 58.1589 36.147 58.1629 36.1897C58.5786 36.1911 58.9939 36.159 59.4044 36.0935C66.3251 35.0122 66.8217 26.2973 66.8217 23.8623L63.9221 24.9917L55.9922 28.0756C57.0012 30.3806 57.7195 32.8022 58.1308 35.2845C58.1681 35.5417 58.1788 35.8021 58.1629 36.0615Z" fill="#263238"/>
<path d="M68.2084 9.7978C69.8825 13.955 68.713 26.5066 65.9175 29.5264C61.8565 33.9078 54.7035 34.9251 50.8187 29.9269C47.078 25.1209 48.8883 8.7485 52.0683 5.94501C56.7461 1.81987 65.7253 3.64614 68.2084 9.7978Z" fill="#AD6359"/>
<path d="M57.458 20.3477C57.458 20.3477 57.5221 20.3877 57.514 20.4278C57.4339 21.2288 57.5141 22.254 58.2269 22.5824C58.2269 22.5824 58.2269 22.6385 58.2269 22.6305C57.2898 22.4383 57.2417 21.1326 57.458 20.3477Z" fill="#263238"/>
<path d="M58.2686 19.5137C59.6383 19.5137 59.5662 22.2371 58.2686 22.2531C56.971 22.2691 57.1232 19.5217 58.2686 19.5137Z" fill="#263238"/>
<path d="M52.5475 20.0654C52.5475 20.0654 52.4754 20.0654 52.4754 20.1375C52.4754 20.9866 52.3473 21.9638 51.5703 22.2281C52.5155 22.164 52.6837 20.8744 52.5475 20.0654Z" fill="#263238"/>
<path d="M51.8095 19.1534C50.4478 19.0172 50.2716 21.7486 51.5292 21.8768C52.7867 22.0049 52.955 19.2815 51.8095 19.1534Z" fill="#263238"/>
<path d="M59.6406 17.5511C59.2723 17.4757 58.9086 17.3795 58.5513 17.2627C58.1563 17.2118 57.7883 17.0348 57.502 16.7581C57.4246 16.6554 57.3828 16.5303 57.3828 16.4017C57.3828 16.2731 57.4246 16.148 57.502 16.0452C57.6967 15.8791 57.9321 15.7677 58.1841 15.7227C58.4361 15.6777 58.6955 15.7005 58.9357 15.7889C59.4479 15.8867 59.905 16.1724 60.2174 16.5899C60.284 16.6873 60.3212 16.8018 60.3247 16.9197C60.3282 17.0377 60.2978 17.1542 60.2371 17.2554C60.1764 17.3566 60.0879 17.4382 59.9822 17.4906C59.8765 17.543 59.7579 17.564 59.6406 17.5511Z" fill="#263238"/>
<path d="M50.7141 16.8456C51.0839 16.782 51.4502 16.6991 51.8114 16.5973C52.208 16.5581 52.5815 16.3924 52.8767 16.1247C52.9541 16.022 52.9959 15.8969 52.9959 15.7683C52.9959 15.6397 52.9541 15.5146 52.8767 15.4118C52.6892 15.2389 52.4588 15.1195 52.2094 15.0659C51.9601 15.0124 51.7009 15.0267 51.459 15.1075C50.9361 15.2 50.4671 15.486 50.1454 15.9084C50.0863 16.005 50.0549 16.116 50.0547 16.2292C50.0545 16.3424 50.0854 16.4535 50.1442 16.5503C50.2029 16.6471 50.2872 16.7258 50.3877 16.7779C50.4882 16.83 50.6011 16.8534 50.7141 16.8456Z" fill="#263238"/>
<path d="M58.6039 27.5234C58.4116 27.7236 58.2114 28.004 57.907 28.036C57.59 28.0364 57.2763 27.9709 56.9859 27.8438C56.9859 27.8438 56.9298 27.8438 56.9859 27.8918C57.1111 28.056 57.2786 28.183 57.4705 28.2592C57.6625 28.3354 57.8715 28.358 58.0752 28.3244C58.2504 28.2698 58.4054 28.1646 58.5209 28.0221C58.6363 27.8796 58.707 27.706 58.724 27.5234C58.7 27.5074 58.6359 27.4913 58.6039 27.5234Z" fill="#263238"/>
<path d="M57.6527 25.0011C57.4459 25.3432 57.1704 25.6386 56.8437 25.8689C56.5169 26.0991 56.146 26.2591 55.7543 26.3388C55.4144 26.4068 55.0671 26.431 54.721 26.4108C54.6545 26.4192 54.5873 26.4192 54.5208 26.4108C54.4569 26.4182 54.3924 26.4182 54.3285 26.4108C54.2838 26.4037 54.2428 26.3816 54.2122 26.3481C54.1817 26.3147 54.1634 26.2718 54.1603 26.2266V26.1385V26.0584C54.1603 25.4096 54.1603 24.4564 54.1603 24.4564C53.928 24.5766 52.7185 25.1533 52.7345 24.8169C52.7339 21.8566 53.0372 18.9042 53.6397 16.0059C53.6397 15.9846 53.6481 15.9643 53.6631 15.9492C53.6782 15.9342 53.6985 15.9258 53.7198 15.9258C53.741 15.9258 53.7614 15.9342 53.7764 15.9492C53.7914 15.9643 53.7999 15.9846 53.7999 16.0059C53.7999 18.7373 53.3433 21.4447 53.3113 24.1761C53.741 23.9681 54.1961 23.8173 54.6649 23.7275C54.7531 23.7275 54.5528 25.6499 54.5929 25.9463C55.1301 25.9879 55.6702 25.9206 56.1808 25.7486C56.6914 25.5765 57.162 25.3032 57.5645 24.945C57.6366 24.8809 57.7007 24.937 57.6527 25.0011Z" fill="#263238"/>
<path d="M44.6725 3.05429C45.2982 1.85486 46.3282 0.915613 47.5801 0.402987C49.3103 -0.309901 51.0645 0.122641 52.8026 0.587219C52.8507 0.587219 52.8026 0.675332 52.8026 0.659312C51.3555 0.14876 49.7905 0.0735678 48.301 0.44304C47.0632 0.832542 45.9988 1.63934 45.2893 2.72588C44.5926 3.84817 44.3249 5.18437 44.5353 6.48843C44.7458 7.79248 45.4204 8.9766 46.4347 9.82272C47.031 10.2944 47.7169 10.6399 48.4509 10.8381C49.1848 11.0364 49.9514 11.0834 50.704 10.9762C50.7601 10.9762 50.7921 11.0563 50.704 11.0643C49.6798 11.2536 48.623 11.1538 47.6523 10.7762C46.6816 10.3985 45.8352 9.75796 45.2081 8.92628C44.5811 8.0946 44.198 7.1047 44.102 6.06753C44.006 5.03037 44.2008 3.98696 44.6645 3.05429H44.6725Z" fill="#263238"/>
<path d="M68.7882 12.5126C68.7882 12.5126 69.1166 8.69986 68.2996 7.39423C67.4825 6.0886 65.3599 5.53592 65.3599 5.53592C65.3599 5.53592 64.5589 2.1477 61.5311 1.53093C58.8157 0.946198 56.613 3.13292 56.613 3.13292C56.613 3.13292 53.3609 -1.19247 48.7151 0.321418C44.3016 1.7552 43.9092 8.10712 47.6098 10.6863C50.205 12.4966 54.4183 10.6142 54.4183 10.6142C54.7787 10.7264 58.175 13.5859 61.5472 10.6783C61.5472 10.6783 63.822 13.0813 65.5121 11.8638C65.5121 11.7677 67.3464 12.9932 68.7882 12.5126Z" fill="#263238"/>
<path opacity="0.2" d="M68.4492 22.3572C67.6482 21.2759 66.4627 18.0479 65.894 16.6221C65.3253 15.1963 65.6217 9.12475 65.8059 6.44141C66.8624 7.35635 67.6861 8.50949 68.2089 9.8056C69.2021 12.2727 69.1941 17.7114 68.4492 22.3572Z" fill="#263238"/>
<path d="M66.465 20.0979C66.465 20.0979 68.9881 15.9006 70.8705 16.7817C72.7528 17.6628 71.0467 23.5982 68.9641 24.5354C68.7061 24.6736 68.4228 24.7582 68.1312 24.7842C67.8397 24.8101 67.5459 24.7768 67.2675 24.6862C66.9892 24.5957 66.732 24.4498 66.5115 24.2573C66.291 24.0648 66.1117 23.8297 65.9844 23.5662L66.465 20.0979Z" fill="#AD6359"/>
<path d="M70.3328 18.4727C70.3328 18.4727 70.3328 18.4727 70.3328 18.5287C68.883 19.2336 68.1941 20.6754 67.7376 22.1492C67.8145 21.9937 67.9242 21.8567 68.0592 21.7476C68.1942 21.6385 68.3512 21.5599 68.5194 21.5173C68.6876 21.4747 68.8631 21.469 69.0337 21.5006C69.2043 21.5323 69.3661 21.6005 69.5078 21.7007C69.5478 21.7007 69.5078 21.7888 69.4677 21.7808C69.2001 21.7164 68.9191 21.7356 68.6627 21.8358C68.4064 21.9361 68.1869 22.1126 68.034 22.3415C67.7813 22.7315 67.5718 23.1477 67.4092 23.583C67.3531 23.7192 67.1048 23.6631 67.1448 23.5029C66.9926 21.5565 68.2983 18.8011 70.3328 18.4727Z" fill="#263238"/>
<path d="M66.1211 69.0478L63.7902 44.0246L62.2603 42.7991L27.9375 42.5908L28.7305 66.3885L30.2604 67.614L66.1211 69.0478Z" fill="#37474F"/>
<path d="M64.5898 67.8212L62.2589 42.7981L26.4062 41.3643L28.7291 66.3874L64.5898 67.8212Z" fill="#455A64"/>
<path d="M41.909 53.2996C42.195 52.7942 42.6544 52.4094 43.2022 52.2165C43.75 52.0236 44.3491 52.0356 44.8887 52.2503C45.1513 52.3165 45.3966 52.4382 45.6082 52.607C45.8199 52.7759 45.9929 52.988 46.1158 53.2293C46.2387 53.4705 46.3086 53.7353 46.3208 54.0057C46.3329 54.2762 46.2871 54.5462 46.1863 54.7975C45.8993 55.2996 45.4407 55.6814 44.8948 55.8727C44.3489 56.064 43.7524 56.0519 43.2146 55.8388C42.9517 55.7745 42.7056 55.6544 42.4931 55.4867C42.2805 55.3191 42.1065 55.1077 41.9827 54.867C41.8589 54.6262 41.7882 54.3617 41.7755 54.0913C41.7628 53.8209 41.8083 53.5509 41.909 53.2996Z" fill="white"/>
<path d="M102.74 93.4775C97.3809 94.2144 90.7246 90.0492 73.391 77.4095C70.988 75.6633 78.7898 55.4301 81.4411 57.1683C84.7892 59.355 97.2848 68.5665 98.1178 69.3595C105.111 76.0238 106.368 92.9809 102.74 93.4775Z" fill="#AD6359"/>
<path d="M87.6764 63.2894C87.6764 63.2894 82.7503 56.3688 79.0336 53.5332C75.0921 50.6918 70.5221 48.8451 65.7131 48.1505C60.5226 47.3495 47.4503 49.1277 47.2901 52.9565C47.1459 56.4408 60.4265 53.9898 60.4265 53.9898C60.4265 53.9898 46.4731 54.2541 47.0819 58.4914C47.6906 62.7287 62.9336 58.996 62.9336 58.996C62.9336 58.996 48.6037 59.5888 49.9174 63.8581C50.9106 67.0621 64.9121 64.4829 64.9121 64.4829C64.9121 64.4829 52.6007 65.0836 53.4738 68.4398C54.443 72.1564 67.5153 70.5704 67.5153 70.5704C71.1839 78.7326 76.4384 81.0315 80.2592 82.2971C81.1403 82.6255 87.6764 63.2894 87.6764 63.2894Z" fill="#AD6359"/>
<path d="M65.1996 53.5966C63.5977 53.5966 61.8995 53.5246 60.2655 53.6447C58.6315 53.7649 56.9974 53.9411 55.3794 54.2054C53.2568 54.518 51.1768 55.0716 49.1797 55.8555C52.8242 54.7261 58.6795 54.2134 60.3136 54.0933C61.9476 53.9731 63.5736 53.7729 65.2077 53.6527C65.2477 53.6687 65.2477 53.5966 65.1996 53.5966Z" fill="#263238"/>
<path d="M65.7418 59.5078C63.6432 59.5639 61.5686 59.5479 59.47 59.692C57.3714 59.8362 55.465 60.1646 53.3584 60.453C53.1982 60.453 53.2623 60.5491 53.4225 60.5331C55.4971 60.3248 57.4275 60.3008 59.5181 60.1166C61.6087 59.9323 63.6673 59.668 65.7499 59.5639L65.7418 59.5078Z" fill="#263238"/>
<path d="M67.1072 64.4902C63.8928 64.5003 60.6879 64.8412 57.5433 65.5075C57.3831 65.5075 57.4792 65.6277 57.6394 65.6036C60.8434 65.2111 63.3024 64.8747 67.1072 64.6024C67.1633 64.6024 67.1713 64.4982 67.1072 64.4902Z" fill="#263238"/>
<path d="M87.6761 60.54L80.8516 85.371C80.8516 85.371 99.1624 96.1444 103.207 93.2928C107.252 90.4413 104.601 76.0874 100.003 70.6166C98.089 68.3658 87.6761 60.54 87.6761 60.54Z" fill="#A3DE42"/>
<path d="M103.609 87.4379V88.4712C103.609 88.8451 103.46 89.2037 103.196 89.4681C102.932 89.7325 102.573 89.881 102.199 89.881C101.735 89.881 101.29 90.0647 100.962 90.3919C100.633 90.7192 100.447 91.1633 100.445 91.6272V92.7165H100.789V91.6272C100.789 91.2533 100.938 90.8947 101.202 90.6303C101.467 90.3659 101.825 90.2174 102.199 90.2174C102.662 90.2153 103.105 90.0307 103.432 89.7036C103.759 89.3766 103.943 88.9337 103.945 88.4712V87.4379H103.609ZM103.521 77.6257C103.513 77.719 103.513 77.8128 103.521 77.9061V78.9954H103.865V78.667C103.737 78.3386 103.633 77.9862 103.521 77.6257ZM91.6741 82.9363C91.5431 82.8054 91.4391 82.65 91.3682 82.4788C91.2973 82.3077 91.2608 82.1243 91.2608 81.9391C91.2608 81.7539 91.2973 81.5705 91.3682 81.3993C91.4391 81.2282 91.5431 81.0728 91.6741 80.9419C92.0013 80.6131 92.185 80.1682 92.185 79.7043C92.185 79.2405 92.0013 78.7955 91.6741 78.4668L90.8731 77.6658L90.6328 77.9061L91.4338 78.7071C91.5648 78.838 91.6688 78.9935 91.7397 79.1646C91.8106 79.3357 91.8471 79.5191 91.8471 79.7043C91.8471 79.8895 91.8106 80.073 91.7397 80.2441C91.6688 80.4152 91.5648 80.5706 91.4338 80.7016C91.1066 81.0303 90.9229 81.4753 90.9229 81.9391C90.9229 82.4029 91.1066 82.8479 91.4338 83.1766L92.1707 83.9055L92.411 83.6652L91.6741 82.9363ZM96.1517 70.1845C95.7778 70.1845 95.4192 70.0359 95.1548 69.7715C94.8904 69.5072 94.7419 69.1486 94.7419 68.7747C94.7419 68.3108 94.5582 67.8659 94.231 67.5371C93.9037 67.2084 93.4596 67.0226 92.9957 67.0205H91.8984V67.3649H92.9957C93.3682 67.3671 93.7248 67.5165 93.9874 67.7807C94.2501 68.0448 94.3975 68.4022 94.3975 68.7747C94.3996 69.2385 94.5854 69.6827 94.9141 70.0099C95.2428 70.3372 95.6878 70.5209 96.1517 70.5209H97.185V70.1845H96.1517Z" fill="white"/>
<path d="M87.4219 61.3662L87.6862 60.5652H87.6221C89.3523 61.975 91.0904 63.3767 92.7966 64.8025C94.5027 66.2283 96.2248 67.6461 97.8509 69.1519C98.6767 69.8815 99.4527 70.6656 100.174 71.4989C100.87 72.3499 101.489 73.2613 102.024 74.2223C103.085 76.1721 103.828 78.2784 104.227 80.462C104.049 78.2131 103.443 76.0189 102.441 73.998C101.937 72.9818 101.324 72.023 100.614 71.1384C99.8873 70.2879 99.106 69.4852 98.2754 68.7354C96.6173 67.2295 94.8792 65.8198 93.117 64.4421C91.3548 63.0643 89.5365 61.7747 87.6702 60.5332H87.6221V60.5893L87.4219 61.3662Z" fill="#263238"/>
<path d="M91.6802 66.7089C91.2637 67.9264 90.9433 69.192 90.5988 70.4336C90.2544 71.6751 89.926 72.9247 89.6056 74.1822C88.9728 76.6813 88.348 79.1885 87.7633 81.7036C87.6031 82.3924 87.4429 83.0813 87.2907 83.7782C87.1385 84.475 87.0664 85.276 86.9062 86.013C86.9062 86.069 86.9783 86.0851 86.9943 86.013C87.1626 85.4042 87.4109 84.8115 87.5951 84.2027C87.7793 83.594 87.9475 82.9371 88.1157 82.3043C88.4522 81.0548 88.7726 79.8052 89.093 78.5477C89.7257 76.0485 90.3586 73.5414 90.9112 71.0183C91.2236 69.5925 91.5841 68.1667 91.8084 66.7249C91.8105 66.7079 91.8058 66.6908 91.7953 66.6773C91.7847 66.6638 91.7693 66.655 91.7523 66.6528C91.7353 66.6507 91.7182 66.6554 91.7046 66.6659C91.6911 66.6765 91.6823 66.6919 91.6802 66.7089Z" fill="#263238"/>
</svg>
